<svg width="20" height="20" viewBox="0 0 20 20" fill="none" xmlns="http://www.w3.org/2000/svg">
<mask id="mask0_3254_2719" style="mask-type:alpha" maskUnits="userSpaceOnUse" x="-2" y="-2" width="24" height="24">
<rect x="22" y="-2" width="24" height="24" transform="rotate(90 22 -2)" fill="#D9D9D9"/>
</mask>
<g mask="url(#mask0_3254_2719)">
<path d="M7 3C7 2.16667 7.29167 1.45833 7.875 0.875C8.45833 0.291666 9.16667 -1.6756e-07 10 -1.31134e-07C10.8333 -9.4708e-08 11.5417 0.291667 12.125 0.875C12.7083 1.45833 13 2.16667 13 3C13 3.83333 12.7083 4.54167 12.125 5.125C11.5417 5.70833 10.8333 6 10 6C9.16667 6 8.45833 5.70833 7.875 5.125C7.29167 4.54167 7 3.83333 7 3ZM9 3C9 3.28333 9.09583 3.52083 9.2875 3.7125C9.47917 3.90417 9.71667 4 10 4C10.2833 4 10.5208 3.90417 10.7125 3.7125C10.9042 3.52083 11 3.28333 11 3C11 2.71667 10.9042 2.47917 10.7125 2.2875C10.5208 2.09583 10.2833 2 10 2C9.71667 2 9.47917 2.09583 9.2875 2.2875C9.09583 2.47917 9 2.71667 9 3ZM7 10C7 9.16667 7.29167 8.45833 7.875 7.875C8.45833 7.29167 9.16667 7 10 7C10.8333 7 11.5417 7.29167 12.125 7.875C12.7083 8.45833 13 9.16667 13 10C13 10.8333 12.7083 11.5417 12.125 12.125C11.5417 12.7083 10.8333 13 10 13C9.16667 13 8.45833 12.7083 7.875 12.125C7.29167 11.5417 7 10.8333 7 10ZM9 10C9 10.2833 9.09583 10.5208 9.2875 10.7125C9.47917 10.9042 9.71667 11 10 11C10.2833 11 10.5208 10.9042 10.7125 10.7125C10.9042 10.5208 11 10.2833 11 10C11 9.71667 10.9042 9.47917 10.7125 9.2875C10.5208 9.09583 10.2833 9 10 9C9.71667 9 9.47917 9.09583 9.2875 9.2875C9.09583 9.47917 9 9.71667 9 10ZM7 17C7 16.1667 7.29167 15.4583 7.875 14.875C8.45833 14.2917 9.16667 14 10 14C10.8333 14 11.5417 14.2917 12.125 14.875C12.7083 15.4583 13 16.1667 13 17C13 17.8333 12.7083 18.5417 12.125 19.125C11.5417 19.7083 10.8333 20 10 20C9.16667 20 8.45833 19.7083 7.875 19.125C7.29167 18.5417 7 17.8333 7 17Z" fill="white"/>
</g>
</svg>
