<svg width="20" height="20" viewBox="0 0 20 20" fill="none" xmlns="http://www.w3.org/2000/svg">
<path fill-rule="evenodd" clip-rule="evenodd" d="M8 1C4.13401 1 1 4.13401 1 8C1 11.866 4.13401 15 8 15C9.50771 15 10.9046 14.523 12.0471 13.7121C12.071 13.7633 12.1042 13.8113 12.1464 13.8536L18.1464 19.8536C18.3417 20.0488 18.6583 20.0488 18.8536 19.8536C19.0488 19.6583 19.0488 19.3417 18.8536 19.1464L12.8536 13.1464C12.8357 13.1286 12.8168 13.1124 12.7972 13.0978C12.851 13.0471 12.9041 12.9955 12.9563 12.9431C14.2187 11.6775 15 9.92949 15 8C15 4.13401 11.866 1 8 1ZM2 8C2 4.68629 4.68629 2 8 2C11.3137 2 14 4.68629 14 8C14 9.65412 13.3313 11.1511 12.2483 12.237L12.2483 12.237C11.1615 13.3267 9.65989 14 8 14C4.68629 14 2 11.3137 2 8Z" fill="black"/>
</svg>
