<svg width="16" height="16" viewBox="0 0 16 16" fill="none" xmlns="http://www.w3.org/2000/svg">
<path d="M9.01646 10.6673H11.9398L10.6111 7.36465L9.01646 10.6673ZM12.4765 12.0007H8.37246L7.26713 14.2907C7.19021 14.45 7.05317 14.5722 6.88614 14.6304C6.7191 14.6887 6.53577 14.6782 6.37646 14.6013C6.21715 14.5244 6.09493 14.3874 6.03666 14.2203C5.9784 14.0533 5.98888 13.87 6.06579 13.7107L9.41046 6.78532C9.52284 6.55274 9.70036 6.35781 9.92145 6.22422C10.1425 6.09064 10.3977 6.02414 10.6558 6.03283C10.914 6.04152 11.1641 6.125 11.3757 6.27315C11.5873 6.42129 11.7513 6.62771 11.8478 6.86732L14.6185 13.752C14.6844 13.9161 14.6825 14.0996 14.6131 14.2623C14.5437 14.4249 14.4125 14.5534 14.2485 14.6193C14.0844 14.6853 13.9008 14.6833 13.7382 14.6139C13.5755 14.5446 13.4471 14.4134 13.3811 14.2493L12.4765 12.0007ZM1.99979 1.33398H7.33313C7.50994 1.33398 7.67951 1.40422 7.80453 1.52925C7.92956 1.65427 7.99979 1.82384 7.99979 2.00065C7.99979 2.17746 7.92956 2.34703 7.80453 2.47206C7.67951 2.59708 7.50994 2.66732 7.33313 2.66732H1.99979C1.82298 2.66732 1.65341 2.59708 1.52839 2.47206C1.40337 2.34703 1.33313 2.17746 1.33313 2.00065C1.33313 1.82384 1.40337 1.65427 1.52839 1.52925C1.65341 1.40422 1.82298 1.33398 1.99979 1.33398V1.33398ZM1.99979 4.66732C1.82298 4.66732 1.65341 4.59708 1.52839 4.47206C1.40337 4.34703 1.33313 4.17746 1.33313 4.00065C1.33313 3.82384 1.40337 3.65427 1.52839 3.52925C1.65341 3.40422 1.82298 3.33398 1.99979 3.33398H6.66846C6.90195 3.33406 7.13133 3.39545 7.33365 3.51201C7.53596 3.62857 7.70412 3.79622 7.8213 3.99818C7.93848 4.20013 8.00057 4.42932 8.00136 4.66281C8.00215 4.8963 7.94161 5.12591 7.82579 5.32865C7.19579 6.43132 6.49713 7.22465 5.71579 7.69798C4.73446 8.29332 3.50246 8.61265 2.02446 8.66665C1.93568 8.67217 1.84668 8.65987 1.76273 8.63047C1.67877 8.60107 1.60155 8.55516 1.53561 8.49545C1.46966 8.43575 1.41634 8.36345 1.37877 8.28281C1.34121 8.20218 1.32016 8.11484 1.31686 8.02595C1.31357 7.93705 1.3281 7.84839 1.3596 7.7652C1.3911 7.68201 1.43893 7.60596 1.50028 7.54154C1.56162 7.47712 1.63524 7.42563 1.71679 7.39009C1.79834 7.35456 1.88618 7.33571 1.97513 7.33465C3.24046 7.28798 4.25446 7.02532 5.02446 6.55798C5.58913 6.21598 6.14179 5.58865 6.66846 4.66732H1.99979Z" fill="white"/>
</svg>
