<svg width="32" height="32" viewBox="0 0 32 32" fill="none" xmlns="http://www.w3.org/2000/svg">
<path fill-rule="evenodd" clip-rule="evenodd" d="M1.66797 15.9993C1.66797 8.08327 8.08522 1.66602 16.0013 1.66602C23.9173 1.66602 30.3346 8.08326 30.3346 15.9993C30.3346 23.9153 23.9173 30.3327 16.0013 30.3327C13.5262 30.3327 11.1951 29.7044 9.16152 28.5984L3.51766 29.6491C3.1936 29.7095 2.86061 29.6061 2.62753 29.3731C2.39444 29.14 2.2912 28.8071 2.35153 28.4829L3.40232 22.8391C2.29614 20.8055 1.66797 18.4744 1.66797 15.9993ZM13.7941 10.1369C13.3348 10.5266 13.0013 11.1207 13.0013 11.9994C13.0013 12.5516 12.5536 12.9994 12.0013 12.9994C11.449 12.9994 11.0013 12.5516 11.0013 11.9994C11.0013 10.5447 11.5844 9.3888 12.5002 8.61184C13.3941 7.85332 14.5505 7.49935 15.668 7.49935C16.7856 7.49935 17.9418 7.85334 18.8358 8.61186C19.7514 9.38882 20.3346 10.5447 20.3346 11.9994C20.3346 13.0205 20.073 13.7987 19.6458 14.4395C19.2869 14.978 18.8204 15.3943 18.4533 15.7219C18.4132 15.7576 18.3744 15.7923 18.3369 15.8259C17.9273 16.1945 17.6186 16.4984 17.3924 16.8981C17.176 17.2805 17.0013 17.8148 17.0013 18.6659C17.0013 19.2181 16.5536 19.6659 16.0013 19.6659C15.449 19.6659 15.0013 19.2181 15.0013 18.6659C15.0013 17.5169 15.2433 16.6345 15.6518 15.9129C16.0506 15.2085 16.5753 14.7207 16.999 14.3393L17.0953 14.2528C17.4956 13.8932 17.7714 13.6456 17.9817 13.3301C18.1796 13.0334 18.3346 12.6449 18.3346 11.9994C18.3346 11.1207 18.0012 10.5266 17.5418 10.1369C17.0608 9.72871 16.3837 9.49935 15.668 9.49935C14.9521 9.49935 14.2752 9.72871 13.7941 10.1369ZM16.7576 24.6673C17.1273 24.2571 17.0942 23.6247 16.684 23.2551C16.2736 22.8855 15.6413 22.9184 15.2717 23.3287L15.2584 23.3435C14.8886 23.7539 14.9217 24.3861 15.332 24.7559C15.7424 25.1255 16.3746 25.0925 16.7442 24.6821L16.7576 24.6673Z" fill="white"/>
</svg>
