<svg width="32" height="32" viewBox="0 0 32 32" fill="none" xmlns="http://www.w3.org/2000/svg">
<path fill-rule="evenodd" clip-rule="evenodd" d="M3 14.3333C3 6.41725 9.41725 0 17.3333 0C25.2493 0 31.6667 6.41724 31.6667 14.3333C31.6667 22.2493 25.2493 28.6667 17.3333 28.6667C14.8583 28.6667 12.5271 28.0384 10.4935 26.9324L4.84969 27.9831C4.52563 28.0435 4.19264 27.9401 3.95956 27.7071C3.72647 27.474 3.62323 27.1411 3.68356 26.8169L4.73435 21.1731C3.62817 19.1395 3 16.8084 3 14.3333ZM15.1261 8.47084C14.6668 8.86055 14.3333 9.45469 14.3333 10.3333C14.3333 10.8856 13.8856 11.3333 13.3333 11.3333C12.7811 11.3333 12.3333 10.8856 12.3333 10.3333C12.3333 8.87865 12.9165 7.72279 13.8322 6.94583C14.7261 6.18731 15.8825 5.83333 17 5.83333C18.1176 5.83333 19.2739 6.18732 20.1679 6.94584C21.0835 7.7228 21.6667 8.87865 21.6667 10.3333C21.6667 11.3545 21.4051 12.1327 20.9779 12.7735C20.6189 13.312 20.1524 13.7283 19.7853 14.0559C19.7452 14.0916 19.7064 14.1263 19.6689 14.1599C19.2593 14.5285 18.9507 14.8324 18.7244 15.2321C18.508 15.6145 18.3333 16.1488 18.3333 16.9999C18.3333 17.5521 17.8856 17.9999 17.3333 17.9999C16.7811 17.9999 16.3333 17.5521 16.3333 16.9999C16.3333 15.8509 16.5753 14.9685 16.9839 14.2469C17.3827 13.5425 17.9073 13.0547 18.3311 12.6733L18.4273 12.5868C18.8276 12.2272 19.1035 11.9796 19.3137 11.664C19.5116 11.3674 19.6667 10.9789 19.6667 10.3333C19.6667 9.45471 19.3332 8.86056 18.8739 8.47085C18.3928 8.06269 17.7157 7.83333 17 7.83333C16.2841 7.83333 15.6072 8.06269 15.1261 8.47084ZM18.0896 23.0013C18.4593 22.5911 18.4263 21.9587 18.016 21.5891C17.6056 21.2195 16.9733 21.2524 16.6037 21.6627L16.5904 21.6775C16.2207 22.0879 16.2537 22.7201 16.664 23.0899C17.0744 23.4595 17.7067 23.4265 18.0763 23.0161L18.0896 23.0013Z" fill="black"/>
</svg>
