<svg width="20" height="20" viewBox="0 0 20 20" fill="none" xmlns="http://www.w3.org/2000/svg">
<path d="M14.25 17.918C15.5617 17.918 16.625 16.8547 16.625 15.543C16.625 14.2313 15.5617 13.168 14.25 13.168C12.9383 13.168 11.875 14.2313 11.875 15.543C11.875 16.8547 12.9383 17.918 14.25 17.918Z" fill="#969696"/>
<path d="M14.25 6.83203C15.5617 6.83203 16.625 5.7687 16.625 4.45703C16.625 3.14536 15.5617 2.08203 14.25 2.08203C12.9383 2.08203 11.875 3.14536 11.875 4.45703C11.875 5.7687 12.9383 6.83203 14.25 6.83203Z" fill="#969696"/>
<path d="M4.75 12.375C6.06167 12.375 7.125 11.3117 7.125 10C7.125 8.68829 6.06167 7.625 4.75 7.625C3.43833 7.625 2.375 8.68829 2.375 10C2.375 11.3117 3.43833 12.375 4.75 12.375Z" fill="#969696"/>
<path d="M12.2721 5.64453L6.73047 8.8112" stroke="#969696"/>
<path d="M6.73047 11.1875L12.2721 14.3542" stroke="#969696"/>
</svg>
