<svg width="0" height="0" class="hide" xmlns="http://www.w3.org/2000/svg">


    <symbol viewBox="0 0 20 20" fill="none" id="burger">
        <path d="M3 4H16"/>
        <path d="M3 10H16"/>
        <path d="M3 16H16"/>
    </symbol>

    <symbol viewBox="0 0 20 20" id="search">
        <path fill-rule="evenodd" clip-rule="evenodd" d="M8 1C4.13401 1 1 4.13401 1 8C1 11.866 4.13401 15 8 15C9.50771 15 10.9046 14.523 12.0471 13.7121C12.071 13.7633 12.1042 13.8113 12.1464 13.8536L18.1464 19.8536C18.3417 20.0488 18.6583 20.0488 18.8536 19.8536C19.0488 19.6583 19.0488 19.3417 18.8536 19.1464L12.8536 13.1464C12.8357 13.1286 12.8168 13.1124 12.7972 13.0978C12.851 13.0471 12.9041 12.9955 12.9563 12.9431C14.2187 11.6775 15 9.92949 15 8C15 4.13401 11.866 1 8 1ZM2 8C2 4.68629 4.68629 2 8 2C11.3137 2 14 4.68629 14 8C14 9.65412 13.3313 11.1511 12.2483 12.237L12.2483 12.237C11.1615 13.3267 9.65989 14 8 14C4.68629 14 2 11.3137 2 8Z"/>
    </symbol>

    <symbol viewBox="0 0 49 48" fill="none" id="modal-check">
        <g clip-path="url(#clip0_3017_8064)">
        <path d="M24.5 -0.00390625C11.2669 -0.00390625 0.5 10.763 0.5 23.9961C0.5 37.2292 11.2669 47.9961 24.5 47.9961C37.7331 47.9961 48.5 37.2292 48.5 23.9961C48.5 10.763 37.7331 -0.00390625 24.5 -0.00390625ZM37.9135 17.6803L22.5752 32.8983C21.6729 33.8006 20.2293 33.8608 19.2669 32.9585L11.1466 25.56C10.1842 24.6577 10.1241 23.154 10.9662 22.1916C11.8684 21.2292 13.3722 21.169 14.3346 22.0713L20.7707 27.966L34.485 14.2517C35.4474 13.2893 36.9511 13.2893 37.9135 14.2517C38.8759 15.2141 38.8759 16.7179 37.9135 17.6803Z" fill="white"/>
        </g>
        <defs>
        <clipPath id="clip0_3017_8064">
        <rect width="48" height="48" fill="white" transform="translate(0.5)"/>
        </clipPath>
        </defs>
    </symbol>

    <symbol viewBox="0 0 23 20" fill="none" id="close">
        <path d="M6.08594 0.617188L16.9193 19.3811" stroke="white"/>
        <path d="M16.9219 0.617188L6.08854 19.3811" stroke="white"/>
    </symbol>






</svg>