<svg width="278" height="16" viewBox="0 0 278 16" fill="none" xmlns="http://www.w3.org/2000/svg">
<g clip-path="url(#clip0_3001_13220)">
<path d="M2 6H0V10H2V6Z" fill="black"/>
<path d="M6 6H4V10H6V6Z" fill="black"/>
<path d="M10 6H8V10H10V6Z" fill="black"/>
<path d="M14 0H12V16H14V0Z" fill="black"/>
<path d="M18 0H16V16H18V0Z" fill="black"/>
<path d="M22 0H20V16H22V0Z" fill="black"/>
<path d="M26 0H24V16H26V0Z" fill="black"/>
<path d="M30 6H28V10H30V6Z" fill="black"/>
<path d="M34 6H32V10H34V6Z" fill="black"/>
<path d="M38 6H36V10H38V6Z" fill="black"/>
<path d="M42 0H40V16H42V0Z" fill="black"/>
<path d="M46 0H44V16H46V0Z" fill="black"/>
<path d="M50 3H48V13H50V3Z" fill="black"/>
<path d="M54 3H52V13H54V3Z" fill="black"/>
<path d="M58 6H56V10H58V6Z" fill="black"/>
<path d="M62 6H60V10H62V6Z" fill="black"/>
<path d="M66 6H64V10H66V6Z" fill="black"/>
<path d="M70 0H68V16H70V0Z" fill="black"/>
<path d="M74 0H72V16H74V0Z" fill="black"/>
<path d="M78 0H76V16H78V0Z" fill="black"/>
<path d="M82 0H80V16H82V0Z" fill="black"/>
<path d="M86 6H84V10H86V6Z" fill="black"/>
<path d="M90 6H88V10H90V6Z" fill="black"/>
<path d="M94 6H92V10H94V6Z" fill="black"/>
<path d="M98 0H96V16H98V0Z" fill="black"/>
<path d="M102 0H100V16H102V0Z" fill="black"/>
<path d="M106 3H104V13H106V3Z" fill="black"/>
<path d="M110 3H108V13H110V3Z" fill="black"/>
<path d="M114 6H112V10H114V6Z" fill="black"/>
<path d="M118 6H116V10H118V6Z" fill="black"/>
<path d="M122 6H120V10H122V6Z" fill="black"/>
<path d="M126 0H124V16H126V0Z" fill="black"/>
<path d="M130 0H128V16H130V0Z" fill="black"/>
<path d="M134 0H132V16H134V0Z" fill="black"/>
<path d="M138 0H136V16H138V0Z" fill="black"/>
<path d="M142 6H140V10H142V6Z" fill="black"/>
<path d="M146 6H144V10H146V6Z" fill="black"/>
<path d="M150 6H148V10H150V6Z" fill="black"/>
<path d="M154 0H152V16H154V0Z" fill="black"/>
<path d="M158 0H156V16H158V0Z" fill="black"/>
<path d="M162 3H160V13H162V3Z" fill="black"/>
<path d="M166 3H164V13H166V3Z" fill="black"/>
<path d="M170 6H168V10H170V6Z" fill="black"/>
<path d="M174 6H172V10H174V6Z" fill="black"/>
<path d="M178 6H176V10H178V6Z" fill="black"/>
<path d="M182 0H180V16H182V0Z" fill="black"/>
<path d="M186 0H184V16H186V0Z" fill="black"/>
<path d="M190 0H188V16H190V0Z" fill="black"/>
<path d="M194 0H192V16H194V0Z" fill="black"/>
<path d="M198 6H196V10H198V6Z" fill="black"/>
<path d="M202 6H200V10H202V6Z" fill="black"/>
<path d="M206 6H204V10H206V6Z" fill="black"/>
<path d="M210 0H208V16H210V0Z" fill="black"/>
<path d="M214 0H212V16H214V0Z" fill="black"/>
<path d="M218 3H216V13H218V3Z" fill="black"/>
<path d="M222 3H220V13H222V3Z" fill="black"/>
<path d="M226 6H224V10H226V6Z" fill="black"/>
<path d="M230 6H228V10H230V6Z" fill="black"/>
<path d="M234 6H232V10H234V6Z" fill="black"/>
<path d="M238 0H236V16H238V0Z" fill="black"/>
<path d="M242 0H240V16H242V0Z" fill="black"/>
<path d="M246 0H244V16H246V0Z" fill="black"/>
<path d="M250 0H248V16H250V0Z" fill="black"/>
<path d="M254 6H252V10H254V6Z" fill="black"/>
<path d="M258 6H256V10H258V6Z" fill="black"/>
<path d="M262 6H260V10H262V6Z" fill="black"/>
<path d="M266 0H264V16H266V0Z" fill="black"/>
<path d="M270 0H268V16H270V0Z" fill="black"/>
<path d="M274 3H272V13H274V3Z" fill="black"/>
<path d="M278 3H276V13H278V3Z" fill="black"/>
</g>
<defs>
<clipPath id="clip0_3001_13220">
<rect width="278" height="16" fill="white"/>
</clipPath>
</defs>
</svg>
